<svg xmlns="http://www.w3.org/2000/svg" width="25" height="25" viewBox="0 0 25 25" fill="none">
  <path d="M4.16665 20.8332C3.59373 20.8332 3.10328 20.6292 2.69529 20.2212C2.28731 19.8132 2.08331 19.3228 2.08331 18.7498V6.24984C2.08331 5.67692 2.28731 5.18647 2.69529 4.77848C3.10328 4.3705 3.59373 4.1665 4.16665 4.1665H20.8333C21.4062 4.1665 21.8967 4.3705 22.3047 4.77848C22.7127 5.18647 22.9166 5.67692 22.9166 6.24984V18.7498C22.9166 19.3228 22.7127 19.8132 22.3047 20.2212C21.8967 20.6292 21.4062 20.8332 20.8333 20.8332H4.16665ZM12.5 13.5415L4.16665 8.33317V18.7498H20.8333V8.33317L12.5 13.5415ZM12.5 11.4582L20.8333 6.24984H4.16665L12.5 11.4582ZM4.16665 8.33317V6.24984V18.7498V8.33317Z" fill="#1D1B20"/>
</svg>