<svg xmlns="http://www.w3.org/2000/svg" width="25" height="25" viewBox="0 0 25 25" fill="none">
  <rect width="25" height="25" fill="#FBFAF4"/>
  <path d="M12.5 21.8748L10.9896 20.5207C9.23609 18.9408 7.78644 17.578 6.6406 16.4321C5.49477 15.2863 4.58331 14.262 3.90623 13.3592C3.22915 12.4391 2.75172 11.5971 2.47394 10.8332C2.21352 10.0693 2.08331 9.28803 2.08331 8.48942C2.08331 6.85748 2.63019 5.49463 3.72394 4.40088C4.81769 3.30713 6.18054 2.76025 7.81248 2.76025C8.71526 2.76025 9.57463 2.95123 10.3906 3.33317C11.2066 3.71512 11.9097 4.25331 12.5 4.94775C13.0903 4.25331 13.7934 3.71512 14.6094 3.33317C15.4253 2.95123 16.2847 2.76025 17.1875 2.76025C18.8194 2.76025 20.1823 3.30713 21.276 4.40088C22.3698 5.49463 22.9166 6.85748 22.9166 8.48942C22.9166 9.28803 22.7778 10.0693 22.5 10.8332C22.2396 11.5971 21.7708 12.4391 21.0937 13.3592C20.4166 14.262 19.5052 15.2863 18.3594 16.4321C17.2135 17.578 15.7639 18.9408 14.0104 20.5207L12.5 21.8748ZM12.5 19.0623C14.1666 17.5693 15.5382 16.2932 16.6146 15.2342C17.691 14.1578 18.5416 13.229 19.1666 12.4478C19.7916 11.6491 20.2257 10.946 20.4687 10.3384C20.7118 9.71338 20.8333 9.09706 20.8333 8.48942C20.8333 7.44775 20.4861 6.5797 19.7916 5.88526C19.0972 5.19081 18.2291 4.84359 17.1875 4.84359C16.3715 4.84359 15.6163 5.07796 14.9219 5.54671C14.2274 5.9981 13.75 6.5797 13.4896 7.2915H11.5104C11.25 6.5797 10.7725 5.9981 10.0781 5.54671C9.38366 5.07796 8.62845 4.84359 7.81248 4.84359C6.77081 4.84359 5.90276 5.19081 5.20831 5.88526C4.51387 6.5797 4.16665 7.44775 4.16665 8.48942C4.16665 9.09706 4.28817 9.71338 4.53123 10.3384C4.77429 10.946 5.20831 11.6491 5.83331 12.4478C6.45831 13.229 7.30901 14.1578 8.3854 15.2342C9.46179 16.2932 10.8333 17.5693 12.5 19.0623Z" fill="#1D1B20"/>
</svg>