<svg xmlns="http://www.w3.org/2000/svg" width="140" height="140" viewBox="0 0 140 140" fill="none">
  <path d="M34.125 99.7498C39.0834 95.9582 44.625 92.9686 50.75 90.7811C56.875 88.5936 63.2917 87.4998 70 87.4998C76.7084 87.4998 83.125 88.5936 89.25 90.7811C95.375 92.9686 100.917 95.9582 105.875 99.7498C109.278 95.7637 111.927 91.2429 113.823 86.1873C115.719 81.1318 116.667 75.7359 116.667 69.9998C116.667 57.0693 112.122 46.0589 103.031 36.9686C93.941 27.8783 82.9306 23.3332 70 23.3332C57.0695 23.3332 46.059 27.8783 36.9688 36.9686C27.8785 46.0589 23.3334 57.0693 23.3334 69.9998C23.3334 75.7359 24.2813 81.1318 26.1771 86.1873C28.0729 91.2429 30.7222 95.7637 34.125 99.7498ZM70 75.8332C64.2639 75.8332 59.4271 73.8644 55.4896 69.9269C51.5521 65.9894 49.5834 61.1526 49.5834 55.4165C49.5834 49.6804 51.5521 44.8436 55.4896 40.9061C59.4271 36.9686 64.2639 34.9998 70 34.9998C75.7361 34.9998 80.5729 36.9686 84.5104 40.9061C88.4479 44.8436 90.4167 49.6804 90.4167 55.4165C90.4167 61.1526 88.4479 65.9894 84.5104 69.9269C80.5729 73.8644 75.7361 75.8332 70 75.8332ZM70 128.333C61.9306 128.333 54.3472 126.802 47.25 123.739C40.1528 120.677 33.9792 116.521 28.7292 111.271C23.4792 106.021 19.3229 99.8471 16.2604 92.7498C13.1979 85.6526 11.6667 78.0693 11.6667 69.9998C11.6667 61.9304 13.1979 54.3471 16.2604 47.2498C19.3229 40.1526 23.4792 33.979 28.7292 28.729C33.9792 23.479 40.1528 19.3228 47.25 16.2603C54.3472 13.1978 61.9306 11.6665 70 11.6665C78.0695 11.6665 85.6528 13.1978 92.75 16.2603C99.8472 19.3228 106.021 23.479 111.271 28.729C116.521 33.979 120.677 40.1526 123.74 47.2498C126.802 54.3471 128.333 61.9304 128.333 69.9998C128.333 78.0693 126.802 85.6526 123.74 92.7498C120.677 99.8471 116.521 106.021 111.271 111.271C106.021 116.521 99.8472 120.677 92.75 123.739C85.6528 126.802 78.0695 128.333 70 128.333Z" fill="#21452D"/>
</svg>