<svg xmlns="http://www.w3.org/2000/svg" width="24" height="21" viewBox="0 0 24 21" fill="none">
  <path d="M1 1H2.82292L3.60417 4.125M3.60417 4.125L6.20833 14.5417H19.75L22.3542 4.125H3.60417Z" stroke="black" stroke-width="2" stroke-linecap="round" stroke-linejoin="round"/>
  <path d="M6.20831 19.75C7.07126 19.75 7.77081 19.0504 7.77081 18.1875C7.77081 17.3246 7.07126 16.625 6.20831 16.625C5.34537 16.625 4.64581 17.3246 4.64581 18.1875C4.64581 19.0504 5.34537 19.75 6.20831 19.75Z" stroke="black" stroke-width="2" stroke-linecap="round" stroke-linejoin="round"/>
  <path d="M19.75 19.75C20.6129 19.75 21.3125 19.0504 21.3125 18.1875C21.3125 17.3246 20.6129 16.625 19.75 16.625C18.8871 16.625 18.1875 17.3246 18.1875 18.1875C18.1875 19.0504 18.8871 19.75 19.75 19.75Z" stroke="black" stroke-width="2" stroke-linecap="round" stroke-linejoin="round"/>
</svg>