<svg xmlns="http://www.w3.org/2000/svg" width="25" height="25" viewBox="0 0 25 25" fill="none">
  <rect width="25" height="25" fill="#FBFAF4"/>
  <path d="M6.24998 14.5835H18.75V12.5002H6.24998V14.5835ZM6.24998 11.4585H18.75V9.37516H6.24998V11.4585ZM6.24998 8.3335H18.75V6.25016H6.24998V8.3335ZM22.9166 22.9168L18.75 18.7502H4.16665C3.59373 18.7502 3.10328 18.5462 2.69529 18.1382C2.28731 17.7302 2.08331 17.2397 2.08331 16.6668V4.16683C2.08331 3.59391 2.28731 3.10346 2.69529 2.69548C3.10328 2.28749 3.59373 2.0835 4.16665 2.0835H20.8333C21.4062 2.0835 21.8967 2.28749 22.3047 2.69548C22.7127 3.10346 22.9166 3.59391 22.9166 4.16683V22.9168ZM4.16665 16.6668H19.6354L20.8333 17.8387V4.16683H4.16665V16.6668Z" fill="#1D1B20"/>
</svg>